<?xml version="1.0" standalone="no"?>
<!DOCTYPE svg PUBLIC "-//W3C//DTD SVG 20010904//EN"
 "http://www.w3.org/TR/2001/REC-SVG-20010904/DTD/svg10.dtd">
<svg version="1.0" xmlns="http://www.w3.org/2000/svg"
 width="300.000000pt" height="300.000000pt" viewBox="0 0 300.000000 300.000000"
 preserveAspectRatio="xMidYMid meet">
<metadata>
Created by potrace 1.10, written by Peter Selinger 2001-2011
</metadata>
<g transform="translate(0.000000,300.000000) scale(0.100000,-0.100000)"
fill="#000000" stroke="none">
<path d="M780 2010 c-1 -80 -2 -209 -3 -288 l-2 -142 71 0 c88 0 124 22 124
75 0 33 -21 65 -43 65 -7 0 -1 9 12 19 17 13 24 29 24 50 0 47 -23 64 -93 69
l-60 4 0 129 0 129 490 0 490 0 0 -67 c0 -38 5 -108 10 -157 8 -83 8 -93 -12
-124 -21 -34 -25 -68 -20 -201 1 -41 5 -71 9 -67 4 4 6 39 5 79 -1 40 2 79 8
87 7 11 10 -10 12 -75 l2 -90 3 75 c5 110 17 118 23 15 l6 -90 2 83 c3 111 22
107 23 -5 1 -74 3 -82 10 -48 4 22 8 76 8 120 1 63 -3 87 -19 113 -22 36 -25
96 -14 260 l7 92 63 0 c40 0 64 -4 64 -11 0 -6 5 -76 11 -156 l11 -145 -30
-31 c-17 -18 -34 -44 -37 -58 -8 -32 9 -128 31 -174 45 -96 123 -15 124 128 0
63 -2 71 -30 99 -27 27 -30 35 -30 97 0 37 3 109 6 159 l7 92 83 0 84 0 0
-475 0 -475 -175 0 c-160 0 -175 -2 -175 -17 0 -17 15 -18 190 -15 l190 3 0
507 0 507 -730 0 -730 0 0 -145z m134 -196 c35 -35 8 -74 -57 -81 l-47 -6 0
52 0 51 44 0 c27 0 51 -6 60 -16z m1132 -79 c21 -33 13 -139 -13 -168 -17 -18
-18 -18 -39 6 -28 32 -34 146 -9 171 23 23 42 20 61 -9z m-208 -9 c2 -10 -1
-23 -7 -29 -16 -16 -34 6 -26 33 8 24 28 22 33 -4z m-920 -32 c50 -35 16 -84
-59 -84 l-49 0 0 50 0 50 43 0 c23 0 53 -7 65 -16z"/>
<path d="M1070 1720 c0 -133 1 -140 20 -140 19 0 20 7 20 140 0 133 -1 140
-20 140 -19 0 -20 -7 -20 -140z"/>
<path d="M1264 1841 c-61 -37 -80 -143 -37 -208 33 -51 124 -72 191 -44 31 13
32 16 32 70 l0 56 -45 0 c-37 0 -45 -3 -45 -18 0 -13 7 -17 28 -15 23 3 27 -1
30 -26 4 -36 -10 -46 -66 -46 -54 0 -77 12 -97 50 -30 58 -11 135 40 158 36
16 86 15 112 -3 18 -13 22 -13 33 0 9 11 6 17 -19 29 -42 22 -119 20 -157 -3z"/>
<path d="M920 1280 l0 -140 68 0 c74 0 107 15 122 56 12 31 -3 70 -30 79 -21
7 -21 7 5 31 21 20 26 31 21 52 -12 47 -40 62 -117 62 l-69 0 0 -140z m138 98
c16 -16 15 -53 0 -66 -7 -6 -33 -12 -58 -13 l-45 -4 -3 48 -3 47 48 0 c27 0
54 -5 61 -12z m4 -125 c42 -38 8 -83 -64 -83 l-48 0 0 50 0 50 47 0 c29 0 53
-6 65 -17z"/>
<path d="M1210 1280 c0 -133 1 -140 20 -140 19 0 20 7 20 140 0 133 -1 140
-20 140 -19 0 -20 -7 -20 -140z"/>
<path d="M1330 1405 c0 -11 12 -15 45 -15 l45 0 0 -125 c0 -118 1 -125 20
-125 19 0 20 7 20 125 l0 125 45 0 c33 0 45 4 45 15 0 12 -19 15 -110 15 -91
0 -110 -3 -110 -15z"/>
<path d="M1630 1280 l0 -140 90 0 c73 0 90 3 90 15 0 12 -14 15 -70 15 l-70 0
0 50 0 50 55 0 c42 0 55 3 55 15 0 12 -13 15 -55 15 l-55 0 0 45 0 45 70 0
c56 0 70 3 70 15 0 12 -17 15 -90 15 l-90 0 0 -140z"/>
<path d="M850 990 c0 -5 5 -10 10 -10 6 0 10 -13 10 -30 0 -16 5 -30 10 -30 6
0 10 14 10 30 0 17 5 30 10 30 6 0 10 5 10 10 0 6 -13 10 -30 10 -16 0 -30 -4
-30 -10z"/>
<path d="M941 958 c1 -24 3 -35 6 -25 4 17 6 17 22 3 16 -15 18 -14 18 16 0
33 -11 48 -34 48 -9 0 -13 -14 -12 -42z"/>
<path d="M1117 993 c-4 -3 -7 -21 -7 -40 0 -28 4 -33 23 -33 45 0 65 50 28 70
-23 12 -35 13 -44 3z m41 -35 c-5 -32 -28 -35 -28 -4 0 17 5 26 16 26 10 0 14
-7 12 -22z"/>
<path d="M1217 993 c-11 -10 -8 -73 3 -73 6 0 10 18 10 40 0 41 -2 45 -13 33z"/>
<path d="M1260 990 c0 -5 5 -10 10 -10 6 0 10 -13 10 -30 0 -16 5 -30 10 -30
6 0 10 14 10 30 0 17 5 30 10 30 6 0 10 5 10 10 0 6 -13 10 -30 10 -16 0 -30
-4 -30 -10z"/>
<path d="M1410 986 c-16 -21 -9 -60 13 -64 41 -8 64 48 28 68 -25 13 -26 13
-41 -4z m40 -24 c0 -24 -8 -32 -26 -25 -22 8 -17 43 6 43 13 0 20 -7 20 -18z"/>
<path d="M1549 973 l0 -28 -16 23 c-22 32 -33 27 -33 -14 0 -20 4 -33 10 -29
5 3 7 12 3 20 -8 22 6 18 28 -7 l18 -23 1 43 c0 23 -2 42 -5 42 -3 0 -5 -12
-6 -27z"/>
<path d="M1607 963 c-15 -39 -13 -59 3 -33 8 12 13 13 30 2 11 -7 20 -10 20
-7 0 10 -29 75 -33 75 -3 0 -12 -17 -20 -37z"/>
<path d="M1690 961 c0 -37 2 -41 26 -41 14 0 23 4 19 10 -4 6 -11 8 -16 5 -5
-4 -9 7 -9 24 0 16 -4 33 -10 36 -6 4 -10 -10 -10 -34z"/>
<path d="M1819 998 c-5 -16 -2 -71 3 -75 5 -2 8 3 8 11 0 8 8 17 18 19 16 4
16 5 0 6 -22 1 -24 21 -3 21 8 0 15 5 15 10 0 8 -38 15 -41 8z"/>
<path d="M1908 989 c-35 -20 -11 -75 29 -67 22 4 29 43 13 64 -14 16 -19 17
-42 3z m42 -28 c0 -19 -23 -35 -34 -24 -14 15 -5 43 14 43 13 0 20 -7 20 -19z"/>
<path d="M2006 984 c-19 -18 -19 -20 -6 -45 17 -31 70 -18 70 17 0 14 -27 44
-40 44 -5 0 -16 -7 -24 -16z m42 -26 c-2 -13 -10 -23 -18 -23 -8 0 -16 10 -18
23 -3 17 2 22 18 22 16 0 21 -5 18 -22z"/>
<path d="M2100 960 c0 -36 3 -40 25 -40 26 0 45 26 37 50 -6 19 -22 30 -44 30
-14 0 -18 -9 -18 -40z m47 4 c6 -16 -15 -37 -29 -28 -4 3 -8 14 -8 25 0 23 28
26 37 3z"/>
<path d="M1032 965 c-17 -37 -15 -47 8 -33 17 11 22 10 30 -2 13 -20 13 1 0
34 -12 33 -24 33 -38 1z"/>
</g>
</svg>
