<?xml version="1.0" standalone="no"?>
<!DOCTYPE svg PUBLIC "-//W3C//DTD SVG 20010904//EN"
 "http://www.w3.org/TR/2001/REC-SVG-20010904/DTD/svg10.dtd">
<svg version="1.0" xmlns="http://www.w3.org/2000/svg"
 width="300.000000pt" height="160.000000pt" viewBox="0 0 300.000000 160.000000"
 preserveAspectRatio="xMidYMid meet">
<metadata>
Created by potrace 1.10, written by Peter Selinger 2001-2011
</metadata>
<g transform="translate(0.000000,160.000000) scale(0.100000,-0.100000)"
fill="#000000" stroke="none">
<path d="M1965 1475 c-132 -29 -306 -125 -353 -195 -35 -51 -27 -133 22 -231
40 -83 63 -116 72 -106 4 3 -8 28 -25 56 -40 62 -71 149 -71 199 0 76 81 151
227 212 189 79 341 68 359 -26 13 -72 -38 -220 -117 -342 -27 -41 -49 -78 -49
-83 0 -23 19 -3 55 58 l39 66 12 -63 c8 -35 23 -91 34 -126 l21 -63 -21 -40
c-11 -22 -32 -48 -46 -58 -25 -16 -27 -16 -41 3 -7 10 -13 33 -11 49 2 24 7
30 26 28 27 -3 29 18 2 34 -16 11 -21 9 -35 -9 -21 -31 -19 -91 4 -119 16 -20
23 -22 47 -14 25 9 59 48 78 88 5 9 7 9 12 -1 8 -18 36 -44 41 -39 2 3 -5 20
-16 38 -18 31 -19 41 -9 101 9 54 8 79 -6 139 -9 40 -25 82 -36 94 -19 21 -19
21 7 85 15 38 28 93 31 132 4 64 3 68 -25 97 -50 49 -118 60 -228 36z m234
-459 c13 -71 14 -146 3 -146 -10 0 -52 175 -52 213 0 68 32 24 49 -67z"/>
<path d="M476 1275 c-72 -29 -135 -89 -170 -161 -63 -129 -58 -258 23 -572 22
-84 26 -96 56 -169 18 -42 18 -43 -6 -62 -23 -19 -23 -21 -9 -48 10 -18 30
-33 56 -41 30 -10 45 -22 57 -47 26 -54 86 -115 113 -115 13 0 24 4 24 8 0 11
-37 154 -46 176 -5 14 -2 16 19 11 19 -5 34 -1 53 14 34 27 42 26 46 -1 4 -29
28 -36 28 -8 0 23 47 73 61 64 5 -3 9 -16 9 -29 0 -13 5 -27 11 -31 7 -4 10 6
7 32 l-3 37 120 60 c119 59 190 83 201 66 11 -19 24 -8 24 21 0 35 16 40 25 8
13 -42 46 -68 86 -68 51 0 135 76 168 152 13 29 27 60 31 68 4 8 82 52 174 98
181 90 197 92 195 28 l0 -31 -16 23 c-25 35 -43 28 -43 -18 0 -45 -10 -51 -32
-18 -21 32 -48 18 -48 -27 0 -41 -12 -45 -28 -10 -18 40 -32 29 -32 -24 0 -65
-16 -73 -54 -28 -17 21 -37 37 -44 37 -16 0 -42 -60 -42 -98 0 -53 42 -70 63
-24 15 35 27 43 48 31 23 -12 49 13 49 48 0 22 2 24 16 12 14 -11 18 -10 30 6
8 10 14 29 14 42 0 29 11 29 28 2 18 -28 33 -20 47 27 l12 39 13 -27 c7 -16
21 -28 30 -28 9 0 21 -5 27 -11 19 -19 62 -1 86 36 12 19 25 35 28 35 3 0 11
-19 18 -42 7 -24 22 -67 34 -96 16 -40 18 -55 9 -64 -18 -18 -14 -28 11 -28
15 0 29 -9 36 -22 11 -23 11 -23 7 2 -4 24 15 34 380 215 211 104 384 195 384
202 0 8 -163 -68 -380 -177 -364 -182 -430 -211 -400 -174 11 12 11 15 1 12
-8 -2 -26 31 -46 87 -28 74 -34 105 -34 171 -1 117 -59 294 -96 294 -22 0 -19
-74 6 -156 20 -66 20 -68 3 -81 -27 -20 -444 -226 -448 -222 -1 2 -10 25 -20
51 -9 26 -33 61 -51 77 -65 56 -147 54 -267 -7 -51 -26 -80 -36 -87 -29 -5 5
-17 6 -28 1 -17 -7 -26 -9 -65 -13 -27 -2 -50 -44 -40 -71 7 -19 4 -28 -17
-46 -29 -24 -41 -23 -41 6 0 10 -22 92 -50 181 -48 157 -60 219 -41 219 19 0
72 -76 118 -172 26 -53 54 -98 61 -98 9 0 9 5 3 18 -6 9 -26 50 -46 91 -47 96
-91 160 -121 173 -15 7 -24 20 -24 33 0 47 -31 122 -63 153 -58 57 -120 65
-211 27z m174 -24 c14 -10 33 -32 43 -48 21 -36 37 -119 26 -130 -4 -4 -4 -25
0 -45 10 -41 11 -29 -29 -245 -32 -179 -90 -392 -117 -432 l-17 -26 -9 35
c-35 132 -101 349 -127 420 -18 47 -39 106 -49 132 -9 26 -22 48 -28 48 -16 0
-16 -1 -3 -114 13 -108 34 -156 24 -53 -3 37 -4 67 -1 67 7 0 84 -242 117
-365 12 -44 31 -104 42 -133 11 -29 17 -56 14 -59 -4 -4 -21 -1 -39 5 -19 7
-41 12 -49 12 -34 0 -134 333 -158 526 -27 208 70 383 235 425 41 10 95 2 125
-20z m1304 -239 c29 -90 44 -178 28 -168 -6 3 -14 21 -17 39 -4 17 -18 64 -31
104 -25 74 -31 118 -15 108 5 -3 21 -40 35 -83z m-1159 -251 l46 -154 -43 -38
c-24 -21 -45 -38 -48 -39 -4 0 -12 17 -19 38 -8 20 -16 43 -19 51 -4 10 -1 13
12 8 12 -5 16 -3 14 5 -3 7 -15 14 -27 16 -19 3 -22 8 -17 30 3 15 13 72 22
127 18 110 25 135 30 120 2 -5 24 -79 49 -164z m1152 83 c4 -11 -2 -23 -18
-35 -15 -12 -19 -19 -10 -19 8 0 22 7 31 15 15 14 18 14 23 2 7 -17 -36 -82
-62 -97 -44 -23 -77 23 -60 84 15 55 81 89 96 50z m-586 -37 c36 -24 79 -90
79 -122 0 -16 -27 -33 -130 -82 -109 -51 -130 -58 -130 -43 0 9 -7 23 -15 30
-17 14 -22 6 -27 -44 -4 -38 -21 -43 -36 -11 -6 14 -18 25 -27 25 -12 0 -13
-4 -3 -25 6 -14 15 -25 20 -25 5 0 6 -5 3 -10 -4 -6 -26 -8 -55 -4 -43 6 -49
4 -55 -15 -6 -21 -25 -30 -25 -12 0 18 -34 22 -47 5 -12 -16 -13 -16 -19 1 -4
10 3 38 19 70 15 28 27 62 27 75 0 15 4 20 15 16 40 -15 108 40 108 89 0 17
14 29 64 54 114 58 178 66 234 28z m-371 -65 c0 -16 -32 -52 -46 -52 -19 0
-18 25 2 44 16 17 44 22 44 8z m50 -25 c0 -16 -37 -57 -50 -57 -19 0 -10 29
16 49 31 25 34 25 34 8z m-125 -124 c-24 -66 -32 -71 -43 -32 -9 31 -7 36 21
61 17 15 33 26 35 23 3 -2 -3 -26 -13 -52z m635 28 c0 -30 -21 -81 -31 -75
-13 7 -11 48 2 78 13 28 29 26 29 -3z m-128 -23 c-9 -24 -43 -69 -74 -100 -66
-68 -102 -76 -137 -32 -37 46 -29 55 97 116 64 31 120 57 124 57 3 1 -1 -18
-10 -41z m-724 -119 c-36 -31 -44 -34 -53 -19 -8 14 5 60 17 57 6 -1 13 4 15
11 3 6 -1 12 -7 12 -8 0 -9 10 -5 33 12 53 17 52 41 -8 l24 -59 -32 -27z m161
61 c11 -38 10 -41 -26 -90 -20 -27 -40 -50 -43 -50 -3 0 -12 24 -21 53 l-15
52 40 37 c23 20 44 37 47 38 3 0 11 -18 18 -40z m-105 -112 c17 -58 11 -78
-30 -105 -22 -14 -27 -14 -35 -2 -5 8 -9 21 -9 30 0 16 -19 39 -33 39 -4 0 -5
-9 -2 -20 4 -11 4 -34 0 -50 -5 -24 -13 -31 -41 -36 -19 -3 -38 -4 -41 0 -11
10 48 90 106 143 31 29 59 52 63 53 3 0 13 -23 22 -52z m130 26 c16 -41 6 -59
-45 -81 -58 -26 -59 -20 -7 50 36 51 43 54 52 31z m74 -12 c2 -7 -4 -15 -13
-18 -20 -8 -27 -1 -19 20 7 18 25 17 32 -2z m-521 -172 c13 -35 1 -40 -29 -13
-23 21 -23 43 0 43 10 0 22 -12 29 -30z m52 19 c34 -12 37 -19 19 -37 -21 -21
-43 -13 -55 18 -13 33 -10 35 36 19z m73 -80 c3 -24 11 -57 17 -73 7 -16 9
-31 6 -34 -7 -8 -53 37 -77 76 l-20 33 23 23 c33 32 43 27 51 -25z"/>
<path d="M2397 965 c-56 -21 -147 -78 -147 -92 0 -18 3 -17 54 17 24 17 70 42
100 55 78 35 73 49 -7 20z"/>
</g>
</svg>
